<svg width="232" height="43" viewBox="0 0 232 43" fill="none" xmlns="http://www.w3.org/2000/svg">
<path d="M57 32.6917V10.9558H66.6854C69.0884 10.9558 70.9377 11.4593 72.2333 12.4665C73.5289 13.4531 74.1766 14.8302 74.1766 16.5979C74.1766 17.9133 73.7796 19.0232 72.9856 19.9276C72.1915 20.832 71.0945 21.4383 69.6944 21.7466V21.2842C71.3034 21.5103 72.5467 22.0858 73.4244 23.0107C74.3229 23.9151 74.7722 25.1175 74.7722 26.618C74.7722 28.55 74.0931 30.0505 72.7348 31.1193C71.3766 32.1676 69.4855 32.6917 67.0615 32.6917H57ZM60.8867 29.6702H66.5913C67.9496 29.6702 69.0048 29.4236 69.7571 28.9303C70.5094 28.4164 70.8855 27.584 70.8855 26.433C70.8855 25.2614 70.5094 24.429 69.7571 23.9357C69.0048 23.4218 67.9496 23.1649 66.5913 23.1649H60.8867V29.6702ZM60.8867 20.1743H65.9958C67.4376 20.1743 68.5033 19.9173 69.1929 19.4035C69.9034 18.8691 70.2586 18.088 70.2586 17.0603C70.2586 16.0326 69.9034 15.2618 69.1929 14.748C68.5033 14.2136 67.4376 13.9464 65.9958 13.9464H60.8867V20.1743Z" fill="black"/>
<path d="M86.9472 33C85.5681 33 84.3561 32.6814 83.3113 32.0442C82.2665 31.3865 81.4515 30.4513 80.8664 29.2386C80.2813 28.0259 79.9888 26.5769 79.9888 24.8914C79.9888 23.206 80.2813 21.7672 80.8664 20.5751C81.4515 19.3624 82.2665 18.4374 83.3113 17.8003C84.3561 17.1425 85.5681 16.8137 86.9472 16.8137C88.2846 16.8137 89.4548 17.1425 90.4578 17.8003C91.4817 18.4374 92.1608 19.3007 92.4951 20.3901H92.1504L92.4951 17.122H96.2565C96.1938 17.7592 96.1311 18.4066 96.0684 19.0643C96.0266 19.7221 96.0057 20.3695 96.0057 21.0067V32.6917H92.119L92.0877 29.4853H92.4638C92.1295 30.5541 91.4503 31.4071 90.4264 32.0442C89.4025 32.6814 88.2428 33 86.9472 33ZM88.0443 30.0402C89.2771 30.0402 90.2697 29.6189 91.022 28.7761C91.7742 27.9129 92.1504 26.618 92.1504 24.8914C92.1504 23.1649 91.7742 21.8803 91.022 21.0375C90.2697 20.1948 89.2771 19.7735 88.0443 19.7735C86.8114 19.7735 85.8188 20.1948 85.0666 21.0375C84.3143 21.8803 83.9382 23.1649 83.9382 24.8914C83.9382 26.618 84.3038 27.9129 85.0352 28.7761C85.7875 29.6189 86.7905 30.0402 88.0443 30.0402Z" fill="black"/>
<path d="M102.78 32.6917V10H106.698V23.7507H106.76L113.186 17.122H117.919L109.926 25.3539L109.958 23.8123L118.483 32.6917H113.625L106.76 25.7239H106.698V32.6917H102.78Z" fill="black"/>
<path d="M128.286 33C126.343 33 124.891 32.4759 123.929 31.4276C122.968 30.3794 122.488 28.7761 122.488 26.618V17.122H126.406V26.5871C126.406 27.7382 126.646 28.5912 127.127 29.1461C127.607 29.6805 128.339 29.9477 129.321 29.9477C130.428 29.9477 131.327 29.5777 132.016 28.8378C132.727 28.0979 133.082 27.1215 133.082 25.9088V17.122H137V32.6917H133.176V29.5161H133.615C133.155 30.626 132.455 31.4893 131.515 32.1059C130.595 32.702 129.519 33 128.286 33Z" fill="black"/>
<path d="M143.761 32.6917V10H147.679V32.6917H143.761Z" fill="black"/>
<path d="M160.554 33C159.174 33 157.962 32.6814 156.918 32.0442C155.873 31.3865 155.058 30.4513 154.473 29.2386C153.888 28.0259 153.595 26.5769 153.595 24.8914C153.595 23.206 153.888 21.7672 154.473 20.5751C155.058 19.3624 155.873 18.4374 156.918 17.8003C157.962 17.1425 159.174 16.8137 160.554 16.8137C161.891 16.8137 163.061 17.1425 164.064 17.8003C165.088 18.4374 165.767 19.3007 166.101 20.3901H165.757L166.101 17.122H169.863C169.8 17.7592 169.737 18.4066 169.675 19.0643C169.633 19.7221 169.612 20.3695 169.612 21.0067V32.6917H165.725L165.694 29.4853H166.07C165.736 30.5541 165.057 31.4071 164.033 32.0442C163.009 32.6814 161.849 33 160.554 33ZM161.651 30.0402C162.883 30.0402 163.876 29.6189 164.628 28.7761C165.381 27.9129 165.757 26.618 165.757 24.8914C165.757 23.1649 165.381 21.8803 164.628 21.0375C163.876 20.1948 162.883 19.7735 161.651 19.7735C160.418 19.7735 159.425 20.1948 158.673 21.0375C157.921 21.8803 157.544 23.1649 157.544 24.8914C157.544 26.618 157.91 27.9129 158.642 28.7761C159.394 29.6189 160.397 30.0402 161.651 30.0402Z" fill="black"/>
<path d="M176.386 32.6917V21.0067C176.386 20.3695 176.365 19.7221 176.323 19.0643C176.282 18.4066 176.219 17.7592 176.135 17.122H179.928L180.241 20.2051H179.865C180.367 19.1157 181.109 18.2833 182.091 17.7078C183.073 17.1117 184.212 16.8137 185.507 16.8137C187.367 16.8137 188.767 17.3275 189.707 18.3552C190.648 19.3829 191.118 20.9861 191.118 23.1649V32.6917H187.2V23.3499C187.2 22.0961 186.949 21.202 186.448 20.6676C185.967 20.1126 185.236 19.8351 184.253 19.8351C183.041 19.8351 182.08 20.2051 181.37 20.945C180.659 21.685 180.304 22.6716 180.304 23.9048V32.6917H176.386Z" fill="black"/>
<path d="M197.78 32.6917V10H201.698V23.7507H201.76L208.186 17.122H212.919L204.926 25.3539L204.958 23.8123L213.483 32.6917H208.625L201.76 25.7239H201.698V32.6917H197.78Z" fill="black"/>
<path d="M223.286 33C221.343 33 219.891 32.4759 218.929 31.4276C217.968 30.3794 217.488 28.7761 217.488 26.618V17.122H221.406V26.5871C221.406 27.7382 221.646 28.5912 222.127 29.1461C222.607 29.6805 223.339 29.9477 224.321 29.9477C225.428 29.9477 226.327 29.5777 227.016 28.8378C227.727 28.0979 228.082 27.1215 228.082 25.9088V17.122H232V32.6917H228.176V29.5161H228.615C228.155 30.626 227.455 31.4893 226.515 32.1059C225.595 32.702 224.519 33 223.286 33Z" fill="black"/>
<path fill-rule="evenodd" clip-rule="evenodd" d="M2.49323 0.000424113C2.82869 -0.000690206 3.1641 0.000556255 3.49956 0.00225138C3.86164 0.00365902 4.22373 0.00286512 4.58581 0.00231439C5.295 0.00158756 6.00419 0.00288384 6.71337 0.00489778C7.53977 0.0071623 8.36616 0.0073965 9.19255 0.00748116C10.6678 0.00769901 12.143 0.00973904 13.6182 0.012837C15.0484 0.0158396 16.4786 0.0176714 17.9087 0.0181298C17.9528 0.0181441 17.9968 0.0181149 18.0421 0.0181298C18.2196 0.0181877 18.3971 0.0182618 18.5746 0.0183188C18.663 0.0183472 18.7515 0.0183531 18.8399 0.0183818C18.9282 0.0184104 19.0165 0.0184799 19.1047 0.0185078C20.5131 0.0189623 21.9214 0.0204466 23.3297 0.0220993C23.8235 0.0226705 24.3173 0.0230671 24.811 0.0234225C25.5948 0.0239962 26.3786 0.0250154 27.1623 0.0268881C27.5202 0.0277368 27.8781 0.028424 28.236 0.0285263C28.5643 0.0286287 28.8926 0.0293108 29.2209 0.0304796C29.3391 0.0308003 29.4572 0.0309249 29.5754 0.0307946C30.5519 0.029927 31.5248 0.0694228 32.4656 0.351575C32.5232 0.368383 32.5808 0.38517 32.6401 0.402487C33.1796 0.565224 33.6911 0.771234 34.1967 1.01695C34.2602 1.04765 34.2602 1.04764 34.325 1.07896C34.8895 1.3552 35.3993 1.66888 35.8991 2.0493C35.957 2.09032 35.957 2.09031 36.016 2.13216C36.9736 2.81631 37.7667 3.7071 38.3872 4.69469L38.4772 4.83784C38.8954 5.51564 39.1917 6.19843 39.4349 6.95294C39.4729 7.05648 39.5111 7.16001 39.5494 7.26345C40.2696 9.43012 39.8605 12.0718 38.8448 14.0702C38.5591 14.6142 38.2561 15.1227 37.8634 15.5988L37.7048 15.7987C37.4083 16.1667 37.4083 16.1667 37.2741 16.3086H37.1432V16.4376L37.2741 16.4537C37.5369 16.5185 37.7566 16.6342 37.9944 16.7602C38.0437 16.7864 38.093 16.8125 38.1438 16.8394C40.0572 17.8713 41.6432 19.5801 42.3824 21.6155C42.448 21.8039 42.448 21.804 42.5532 22.0228C42.7728 22.5637 42.8614 23.1026 42.8913 23.6824C42.8984 23.8637 42.8984 23.8637 42.9706 24.0512C43.0696 25.1749 42.9081 26.2517 42.6432 27.3418C42.6324 27.3873 42.6216 27.4329 42.6104 27.4798C42.2826 28.8143 41.4187 30.0878 40.4825 31.084C40.4498 31.119 40.4172 31.154 40.3835 31.1901C39.324 32.3132 38.028 33.1081 36.5539 33.6004C36.4941 33.6216 36.4941 33.6216 36.4331 33.6432C35.2007 34.0691 33.9253 34.1646 32.6302 34.1583C32.4754 34.1587 32.3206 34.1593 32.1658 34.16C31.7512 34.1614 31.3366 34.1609 30.9219 34.1598C30.6619 34.1593 30.4018 34.1594 30.1417 34.1597C30.0764 34.1598 30.0764 34.1598 30.0098 34.1598C29.9213 34.1599 29.8328 34.16 29.7443 34.1601C28.9199 34.1611 28.0956 34.16 27.2712 34.1583C26.5672 34.1568 25.8633 34.1571 25.1593 34.1586C24.3368 34.1603 23.5144 34.161 22.6919 34.16C22.2583 34.1595 21.8247 34.1594 21.3912 34.1605C20.9836 34.1614 20.5761 34.1607 20.1685 34.1589C20.0201 34.1585 19.8717 34.1586 19.7233 34.1593C18.0378 34.1667 16.4685 33.8433 15.1428 32.7616L14.9766 32.6272C13.4718 31.3533 13.0113 29.829 12.6696 27.9696C12.5827 27.4999 12.4815 27.0387 12.3589 26.5771C12.2624 26.2039 12.1961 25.8283 12.1392 25.4475C12.0993 25.1884 12.0461 24.9378 11.9787 24.6843C11.837 24.1399 11.7356 23.5876 11.6285 23.0358C11.3941 21.83 11.1437 20.6292 10.8712 19.4312C10.6954 18.6584 10.5214 17.8858 10.3753 17.107C10.2533 16.458 10.1096 15.8139 9.966 15.1693C9.7057 13.9981 9.46979 12.8222 9.23482 11.6459C9.21247 11.5345 9.21241 11.5345 9.18961 11.4209C9.16179 11.2823 9.13414 11.1436 9.10668 11.0049C9.02756 10.6112 8.93562 10.2225 8.83499 9.83354C8.78636 9.64236 8.74495 9.4507 8.70768 9.25707L8.66752 9.05292C8.641 8.916 8.61457 8.77905 8.58823 8.6421C8.40537 7.71472 8.1782 6.87367 7.35107 6.30773C6.87309 6.02702 6.4663 5.91211 5.90757 5.91348C5.79249 5.91342 5.79246 5.91341 5.67508 5.91335C5.55199 5.91355 5.55197 5.91358 5.4264 5.91379C5.25133 5.91292 5.07625 5.91196 4.90118 5.91089C4.62618 5.90933 4.3512 5.90826 4.07619 5.90926C3.89639 5.90986 3.71663 5.90948 3.53684 5.90793C3.36806 5.90649 3.19925 5.90649 3.03048 5.90812C2.50882 5.90101 2.179 5.81374 1.78552 5.46895C1.56919 5.24852 1.46758 5.03861 1.36401 4.75114C1.2642 4.48337 1.16019 4.22275 1.03662 3.96479C0.897773 3.67135 0.781247 3.37328 0.668314 3.06955C0.536941 2.71625 0.389595 2.38331 0.214066 2.0493C0.0304234 1.65786 -0.0800478 1.28994 0.0705791 0.869009C0.501282 -0.00772931 1.24792 -0.00664127 2.1262 0.0016843C2.24853 0.00142291 2.3709 0.00100985 2.49323 0.000424113ZM32.2958 20.3349C32.1354 20.3362 31.975 20.3368 31.8146 20.3369C31.4211 20.3365 31.0277 20.3367 30.6343 20.3386C30.1229 20.3412 29.6116 20.3426 29.1003 20.3431C28.2703 20.3437 27.4402 20.3455 26.6102 20.3485C25.8025 20.3515 24.9948 20.354 24.1871 20.3554C24.1355 20.3555 24.0855 20.3556 24.0355 20.3557C23.7843 20.3561 23.533 20.3565 23.2818 20.3569C21.1581 20.3603 19.0344 20.366 16.9107 20.3734L16.9228 20.5546L16.9394 20.7887C16.9491 20.9301 16.9608 21.0713 16.9762 21.2122C17.0618 21.2841 17.0618 21.2841 17.0744 21.4642C17.1051 21.6817 17.1348 21.899 17.1726 22.1155C17.2573 22.187 17.2573 22.187 17.276 22.3622C17.3521 22.7936 17.4344 23.2221 17.5354 23.6485C17.654 24.1462 17.7656 24.6443 17.867 25.1456C17.8799 25.2095 17.8924 25.2716 17.9049 25.3337C17.957 25.5903 18.009 25.847 18.0607 26.1037C18.0976 26.2912 18.1345 26.4787 18.1724 26.666C18.1846 26.7261 18.1964 26.7845 18.2083 26.8429C18.31 27.372 18.4386 27.8876 18.8178 28.2934C19.4632 28.8503 20.0619 28.8719 20.8865 28.8659C21.0205 28.8649 21.1546 28.8645 21.2886 28.8646C21.6546 28.8656 22.0206 28.8655 22.3866 28.8638C22.7757 28.8619 23.1647 28.8614 23.5538 28.8613C24.2059 28.8613 24.8579 28.8603 25.5099 28.858C26.2685 28.8553 27.0271 28.8534 27.7857 28.8532C28.6003 28.8529 29.4149 28.8521 30.2295 28.8505C30.4629 28.8501 30.6962 28.8497 30.9296 28.8495C31.3028 28.8491 31.6761 28.8485 32.0493 28.8471C32.187 28.8465 32.3247 28.846 32.4624 28.8455C32.6538 28.8454 32.8453 28.8454 33.0366 28.8444C33.1246 28.8439 33.1246 28.8439 33.2108 28.8434C33.5136 28.8443 33.7943 28.8357 34.0893 28.7636C34.2096 28.7298 34.2096 28.7298 34.3276 28.6967C34.8089 28.5735 35.2343 28.443 35.6387 28.1518L35.7681 28.0514C35.9296 27.9299 36.0798 27.8029 36.2265 27.6643C37.1025 26.818 37.6133 25.7 37.6261 24.4826C37.5875 23.389 37.0979 22.3737 36.3175 21.6063C35.167 20.5378 33.8217 20.3237 32.2958 20.3349ZM29.56 6.02633C29.3452 6.0258 29.1304 6.02555 28.9156 6.02652C28.7587 6.02726 28.6018 6.02766 28.4449 6.02771C28.0614 6.02745 27.678 6.02757 27.2945 6.02872C26.7952 6.0303 26.2958 6.03117 25.7964 6.03143C24.9866 6.03182 24.1768 6.03289 23.3669 6.03471C22.5782 6.03649 21.7894 6.03796 21.0007 6.0388C20.9504 6.03886 20.9017 6.03894 20.8529 6.03899C20.608 6.03925 20.363 6.03951 20.118 6.03975C18.0449 6.04179 15.9719 6.04522 13.8988 6.04964C13.8967 6.24475 13.8967 6.42506 13.9302 6.61773L13.9765 6.81583L14.0305 7.053C14.0958 7.33937 14.156 7.6267 14.2162 7.91415C14.3023 8.32578 14.3859 8.73809 14.4827 9.14743C14.5622 9.47714 14.6343 9.80393 14.6886 10.1387C14.7212 10.3419 14.758 10.5292 14.8155 10.7275C14.8769 10.9393 14.9152 11.1433 14.9505 11.3606C14.9694 11.4831 14.9895 11.6056 15.0119 11.7275C15.083 11.8525 15.0831 11.8526 15.1009 11.9864C15.1612 12.3934 15.2383 12.797 15.3217 13.2C15.336 13.2684 15.3499 13.3347 15.3638 13.4011C15.4283 13.726 15.4797 14.0221 15.6529 14.3087C15.9416 14.5655 16.206 14.6527 16.5948 14.6568C16.6478 14.6564 16.6992 14.656 16.7506 14.6556C16.9281 14.6566 17.1055 14.6572 17.2829 14.6567C17.413 14.6562 17.543 14.6561 17.673 14.6564C18.0274 14.6575 18.3819 14.6579 18.7364 14.6574C19.1139 14.6567 19.4916 14.6568 19.8692 14.6571C20.5022 14.6576 21.1353 14.6575 21.7683 14.6566C22.5042 14.6555 23.2401 14.6552 23.9759 14.6562C24.6127 14.6571 25.2494 14.6576 25.8861 14.6573C26.2658 14.657 26.6455 14.6565 27.0252 14.657C27.3871 14.6576 27.7489 14.6579 28.1107 14.657C28.245 14.6566 28.3794 14.6563 28.5137 14.656C29.2413 14.6584 29.9341 14.6479 30.6472 14.4958C31.7315 14.1945 32.7252 13.4777 33.3015 12.5169C33.8728 11.4908 34.1505 10.3082 33.8148 9.15752C33.3931 8.03024 32.7494 7.11968 31.6515 6.5493C31.6055 6.52612 31.5609 6.50363 31.5162 6.48113C30.955 6.19599 30.3806 6.02881 29.7467 6.02463C29.6832 6.02521 29.6216 6.02576 29.56 6.02633Z" fill="black"/>
<path d="M24.4057 39.7876C24.4057 41.5515 22.9546 43 21.1646 43C19.3746 43 17.9235 41.5515 17.9235 39.7876C17.9235 38.0237 19.3746 36.5752 21.1646 36.5752C22.9546 36.5752 24.4057 38.0237 24.4057 39.7876Z" fill="black"/>
<path d="M38.5315 39.7876C38.5315 41.5515 37.0804 43 35.2904 43C33.5004 43 32.0493 41.5515 32.0493 39.7876C32.0493 38.0237 33.5004 36.5752 35.2904 36.5752C37.0804 36.5752 38.5315 38.0237 38.5315 39.7876Z" fill="black"/>
</svg>
